<?xml version="1.0" encoding="UTF-8" standalone="no"?>
<!DOCTYPE svg PUBLIC "-//W3C//DTD SVG 1.1//EN"
 "http://www.w3.org/Graphics/SVG/1.1/DTD/svg11.dtd">
<!-- Generated by graphviz version 14.1.4 (20260321.0153)
 -->
<!-- Title: G Pages: 1 -->
<svg width="715pt" height="163pt"
 viewBox="0.00 0.00 715.00 163.00" xmlns="http://www.w3.org/2000/svg" xmlns:xlink="http://www.w3.org/1999/xlink">
<g id="graph0" class="graph" transform="scale(1 1) rotate(0) translate(4 159)">
<title>G</title>
<polygon fill="white" stroke="none" points="-4,4 -4,-159 711.25,-159 711.25,4 -4,4"/>
<!-- 4380563536 -->
<g id="node1" class="node">
<title>4380563536</title>
<polygon fill="#eeeeee" stroke="none" points="628.75,-59.5 628.75,-84 660.75,-84 660.75,-59.5 628.75,-59.5"/>
<polygon fill="none" stroke="black" points="628.75,-59.5 628.75,-84 660.75,-84 660.75,-59.5 628.75,-59.5"/>
<text xml:space="preserve" text-anchor="start" x="633.5" y="-67.25" font-family="Times,serif" font-size="14.00">data</text>
<polygon fill="none" stroke="black" points="660.75,-59.5 660.75,-84 706.25,-84 706.25,-59.5 660.75,-59.5"/>
<text xml:space="preserve" text-anchor="start" x="664.75" y="-67.25" font-family="Times,serif" font-size="14.00">0.9993</text>
<polygon fill="#e8f4e8" stroke="none" points="628.75,-35 628.75,-59.5 660.75,-59.5 660.75,-35 628.75,-35"/>
<polygon fill="none" stroke="black" points="628.75,-35 628.75,-59.5 660.75,-59.5 660.75,-35 628.75,-35"/>
<text xml:space="preserve" text-anchor="start" x="632.75" y="-42.75" font-family="Times,serif" font-size="14.00">grad</text>
<polygon fill="none" stroke="black" points="660.75,-35 660.75,-59.5 706.25,-59.5 706.25,-35 660.75,-35"/>
<text xml:space="preserve" text-anchor="start" x="664.75" y="-42.75" font-family="Times,serif" font-size="14.00">1.0000</text>
<path fill="none" stroke="black" d="M639.75,-34C639.75,-34 695.25,-34 695.25,-34 701.25,-34 707.25,-40 707.25,-46 707.25,-46 707.25,-73 707.25,-73 707.25,-79 701.25,-85 695.25,-85 695.25,-85 639.75,-85 639.75,-85 633.75,-85 627.75,-79 627.75,-73 627.75,-73 627.75,-46 627.75,-46 627.75,-40 633.75,-34 639.75,-34"/>
</g>
<!-- 4380563536tanh -->
<g id="node2" class="node">
<title>4380563536tanh</title>
<ellipse fill="none" stroke="black" cx="564.75" cy="-59.5" rx="27" ry="18"/>
<text xml:space="preserve" text-anchor="middle" x="564.75" y="-54.45" font-family="Times,serif" font-size="14.00">tanh</text>
</g>
<!-- 4380563536tanh&#45;&gt;4380563536 -->
<g id="edge1" class="edge">
<title>4380563536tanh&#45;&gt;4380563536</title>
<path fill="none" stroke="black" d="M592.22,-59.5C599.76,-59.5 608.22,-59.5 616.67,-59.5"/>
<polygon fill="black" stroke="black" points="616.56,-63 626.56,-59.5 616.56,-56 616.56,-63"/>
</g>
<!-- 4380558976 -->
<g id="node3" class="node">
<title>4380558976</title>
<polygon fill="#eeeeee" stroke="none" points="423.25,-59.5 423.25,-84 455.25,-84 455.25,-59.5 423.25,-59.5"/>
<polygon fill="none" stroke="black" points="423.25,-59.5 423.25,-84 455.25,-84 455.25,-59.5 423.25,-59.5"/>
<text xml:space="preserve" text-anchor="start" x="428" y="-67.25" font-family="Times,serif" font-size="14.00">data</text>
<polygon fill="none" stroke="black" points="455.25,-59.5 455.25,-84 500.75,-84 500.75,-59.5 455.25,-59.5"/>
<text xml:space="preserve" text-anchor="start" x="459.25" y="-67.25" font-family="Times,serif" font-size="14.00">4.0000</text>
<polygon fill="#e8f4e8" stroke="none" points="423.25,-35 423.25,-59.5 455.25,-59.5 455.25,-35 423.25,-35"/>
<polygon fill="none" stroke="black" points="423.25,-35 423.25,-59.5 455.25,-59.5 455.25,-35 423.25,-35"/>
<text xml:space="preserve" text-anchor="start" x="427.25" y="-42.75" font-family="Times,serif" font-size="14.00">grad</text>
<polygon fill="none" stroke="black" points="455.25,-35 455.25,-59.5 500.75,-59.5 500.75,-35 455.25,-35"/>
<text xml:space="preserve" text-anchor="start" x="459.25" y="-42.75" font-family="Times,serif" font-size="14.00">0.0013</text>
<path fill="none" stroke="black" d="M434.25,-34C434.25,-34 489.75,-34 489.75,-34 495.75,-34 501.75,-40 501.75,-46 501.75,-46 501.75,-73 501.75,-73 501.75,-79 495.75,-85 489.75,-85 489.75,-85 434.25,-85 434.25,-85 428.25,-85 422.25,-79 422.25,-73 422.25,-73 422.25,-46 422.25,-46 422.25,-40 428.25,-34 434.25,-34"/>
</g>
<!-- 4380558976&#45;&gt;4380563536tanh -->
<g id="edge8" class="edge">
<title>4380558976&#45;&gt;4380563536tanh</title>
<path fill="none" stroke="black" d="M501.66,-59.5C509.72,-59.5 518.19,-59.5 526.21,-59.5"/>
<polygon fill="black" stroke="black" points="526,-63 536,-59.5 526,-56 526,-63"/>
</g>
<!-- 4380558976+ -->
<g id="node4" class="node">
<title>4380558976+</title>
<ellipse fill="none" stroke="black" cx="359.25" cy="-59.5" rx="27" ry="18"/>
<text xml:space="preserve" text-anchor="middle" x="359.25" y="-54.45" font-family="Times,serif" font-size="14.00">+</text>
</g>
<!-- 4380558976+&#45;&gt;4380558976 -->
<g id="edge2" class="edge">
<title>4380558976+&#45;&gt;4380558976</title>
<path fill="none" stroke="black" d="M386.72,-59.5C394.26,-59.5 402.72,-59.5 411.17,-59.5"/>
<polygon fill="black" stroke="black" points="411.06,-63 421.06,-59.5 411.06,-56 411.06,-63"/>
</g>
<!-- 4376886416 -->
<g id="node5" class="node">
<title>4376886416</title>
<polygon fill="#eeeeee" stroke="none" points="1,-129.5 1,-154 33,-154 33,-129.5 1,-129.5"/>
<polygon fill="none" stroke="black" points="1,-129.5 1,-154 33,-154 33,-129.5 1,-129.5"/>
<text xml:space="preserve" text-anchor="start" x="5.75" y="-137.25" font-family="Times,serif" font-size="14.00">data</text>
<polygon fill="none" stroke="black" points="33,-129.5 33,-154 83,-154 83,-129.5 33,-129.5"/>
<text xml:space="preserve" text-anchor="start" x="39.25" y="-137.25" font-family="Times,serif" font-size="14.00">2.0000</text>
<polygon fill="#e8f4e8" stroke="none" points="1,-105 1,-129.5 33,-129.5 33,-105 1,-105"/>
<polygon fill="none" stroke="black" points="1,-105 1,-129.5 33,-129.5 33,-105 1,-105"/>
<text xml:space="preserve" text-anchor="start" x="5" y="-112.75" font-family="Times,serif" font-size="14.00">grad</text>
<polygon fill="none" stroke="black" points="33,-105 33,-129.5 83,-129.5 83,-105 33,-105"/>
<text xml:space="preserve" text-anchor="start" x="37" y="-112.75" font-family="Times,serif" font-size="14.00">&#45;0.0040</text>
<path fill="none" stroke="black" d="M12,-104C12,-104 72,-104 72,-104 78,-104 84,-110 84,-116 84,-116 84,-143 84,-143 84,-149 78,-155 72,-155 72,-155 12,-155 12,-155 6,-155 0,-149 0,-143 0,-143 0,-116 0,-116 0,-110 6,-104 12,-104"/>
</g>
<!-- 4380375168* -->
<g id="node7" class="node">
<title>4380375168*</title>
<ellipse fill="none" stroke="black" cx="147" cy="-94.5" rx="27" ry="18"/>
<text xml:space="preserve" text-anchor="middle" x="147" y="-89.45" font-family="Times,serif" font-size="14.00">*</text>
</g>
<!-- 4376886416&#45;&gt;4380375168* -->
<g id="edge6" class="edge">
<title>4376886416&#45;&gt;4380375168*</title>
<path fill="none" stroke="black" d="M83.71,-115.67C92.96,-112.52 102.7,-109.21 111.66,-106.17"/>
<polygon fill="black" stroke="black" points="112.71,-109.51 121.05,-102.98 110.46,-102.88 112.71,-109.51"/>
</g>
<!-- 4380375168 -->
<g id="node6" class="node">
<title>4380375168</title>
<polygon fill="#eeeeee" stroke="none" points="212.12,-94.5 212.12,-119 244.12,-119 244.12,-94.5 212.12,-94.5"/>
<polygon fill="none" stroke="black" points="212.12,-94.5 212.12,-119 244.12,-119 244.12,-94.5 212.12,-94.5"/>
<text xml:space="preserve" text-anchor="start" x="216.88" y="-102.25" font-family="Times,serif" font-size="14.00">data</text>
<polygon fill="none" stroke="black" points="244.12,-94.5 244.12,-119 294.12,-119 294.12,-94.5 244.12,-94.5"/>
<text xml:space="preserve" text-anchor="start" x="248.12" y="-102.25" font-family="Times,serif" font-size="14.00">&#45;6.0000</text>
<polygon fill="#e8f4e8" stroke="none" points="212.12,-70 212.12,-94.5 244.12,-94.5 244.12,-70 212.12,-70"/>
<polygon fill="none" stroke="black" points="212.12,-70 212.12,-94.5 244.12,-94.5 244.12,-70 212.12,-70"/>
<text xml:space="preserve" text-anchor="start" x="216.12" y="-77.75" font-family="Times,serif" font-size="14.00">grad</text>
<polygon fill="none" stroke="black" points="244.12,-70 244.12,-94.5 294.12,-94.5 294.12,-70 244.12,-70"/>
<text xml:space="preserve" text-anchor="start" x="250.38" y="-77.75" font-family="Times,serif" font-size="14.00">0.0013</text>
<path fill="none" stroke="black" d="M223.12,-69C223.12,-69 283.12,-69 283.12,-69 289.12,-69 295.12,-75 295.12,-81 295.12,-81 295.12,-108 295.12,-108 295.12,-114 289.12,-120 283.12,-120 283.12,-120 223.12,-120 223.12,-120 217.12,-120 211.12,-114 211.12,-108 211.12,-108 211.12,-81 211.12,-81 211.12,-75 217.12,-69 223.12,-69"/>
</g>
<!-- 4380375168&#45;&gt;4380558976+ -->
<g id="edge7" class="edge">
<title>4380375168&#45;&gt;4380558976+</title>
<path fill="none" stroke="black" d="M294.98,-80.77C304.54,-77.55 314.63,-74.16 323.87,-71.06"/>
<polygon fill="black" stroke="black" points="324.84,-74.42 333.2,-67.92 322.61,-67.79 324.84,-74.42"/>
</g>
<!-- 4380375168*&#45;&gt;4380375168 -->
<g id="edge3" class="edge">
<title>4380375168*&#45;&gt;4380375168</title>
<path fill="none" stroke="black" d="M174.28,-94.5C182.15,-94.5 191.09,-94.5 200.02,-94.5"/>
<polygon fill="black" stroke="black" points="199.75,-98 209.75,-94.5 199.75,-91 199.75,-98"/>
</g>
<!-- 4380373328 -->
<g id="node8" class="node">
<title>4380373328</title>
<polygon fill="#eeeeee" stroke="none" points="1,-60.5 1,-85 33,-85 33,-60.5 1,-60.5"/>
<polygon fill="none" stroke="black" points="1,-60.5 1,-85 33,-85 33,-60.5 1,-60.5"/>
<text xml:space="preserve" text-anchor="start" x="5.75" y="-68.25" font-family="Times,serif" font-size="14.00">data</text>
<polygon fill="none" stroke="black" points="33,-60.5 33,-85 83,-85 83,-60.5 33,-60.5"/>
<text xml:space="preserve" text-anchor="start" x="37" y="-68.25" font-family="Times,serif" font-size="14.00">&#45;3.0000</text>
<polygon fill="#e8f4e8" stroke="none" points="1,-36 1,-60.5 33,-60.5 33,-36 1,-36"/>
<polygon fill="none" stroke="black" points="1,-36 1,-60.5 33,-60.5 33,-36 1,-36"/>
<text xml:space="preserve" text-anchor="start" x="5" y="-43.75" font-family="Times,serif" font-size="14.00">grad</text>
<polygon fill="none" stroke="black" points="33,-36 33,-60.5 83,-60.5 83,-36 33,-36"/>
<text xml:space="preserve" text-anchor="start" x="39.25" y="-43.75" font-family="Times,serif" font-size="14.00">0.0027</text>
<path fill="none" stroke="black" d="M12,-35C12,-35 72,-35 72,-35 78,-35 84,-41 84,-47 84,-47 84,-74 84,-74 84,-80 78,-86 72,-86 72,-86 12,-86 12,-86 6,-86 0,-80 0,-74 0,-74 0,-47 0,-47 0,-41 6,-35 12,-35"/>
</g>
<!-- 4380373328&#45;&gt;4380375168* -->
<g id="edge5" class="edge">
<title>4380373328&#45;&gt;4380375168*</title>
<path fill="none" stroke="black" d="M83.71,-73.94C92.88,-76.97 102.53,-80.15 111.43,-83.09"/>
<polygon fill="black" stroke="black" points="110.16,-86.36 120.75,-86.17 112.36,-79.71 110.16,-86.36"/>
</g>
<!-- 4380373968 -->
<g id="node9" class="node">
<title>4380373968</title>
<polygon fill="#eeeeee" stroke="none" points="211,-25.5 211,-50 243,-50 243,-25.5 211,-25.5"/>
<polygon fill="none" stroke="black" points="211,-25.5 211,-50 243,-50 243,-25.5 211,-25.5"/>
<text xml:space="preserve" text-anchor="start" x="215.75" y="-33.25" font-family="Times,serif" font-size="14.00">data</text>
<polygon fill="none" stroke="black" points="243,-25.5 243,-50 295.25,-50 295.25,-25.5 243,-25.5"/>
<text xml:space="preserve" text-anchor="start" x="247" y="-33.25" font-family="Times,serif" font-size="14.00">10.0000</text>
<polygon fill="#e8f4e8" stroke="none" points="211,-1 211,-25.5 243,-25.5 243,-1 211,-1"/>
<polygon fill="none" stroke="black" points="211,-1 211,-25.5 243,-25.5 243,-1 211,-1"/>
<text xml:space="preserve" text-anchor="start" x="215" y="-8.75" font-family="Times,serif" font-size="14.00">grad</text>
<polygon fill="none" stroke="black" points="243,-1 243,-25.5 295.25,-25.5 295.25,-1 243,-1"/>
<text xml:space="preserve" text-anchor="start" x="250.38" y="-8.75" font-family="Times,serif" font-size="14.00">0.0013</text>
<path fill="none" stroke="black" d="M222,0C222,0 284.25,0 284.25,0 290.25,0 296.25,-6 296.25,-12 296.25,-12 296.25,-39 296.25,-39 296.25,-45 290.25,-51 284.25,-51 284.25,-51 222,-51 222,-51 216,-51 210,-45 210,-39 210,-39 210,-12 210,-12 210,-6 216,0 222,0"/>
</g>
<!-- 4380373968&#45;&gt;4380558976+ -->
<g id="edge4" class="edge">
<title>4380373968&#45;&gt;4380558976+</title>
<path fill="none" stroke="black" d="M296.18,-39.23C305.38,-42.24 315.02,-45.39 323.89,-48.28"/>
<polygon fill="black" stroke="black" points="322.58,-51.53 333.17,-51.31 324.75,-44.88 322.58,-51.53"/>
</g>
</g>
</svg>
