<?xml version="1.0" encoding="UTF-8" standalone="no"?>
<!DOCTYPE svg PUBLIC "-//W3C//DTD SVG 1.1//EN"
 "http://www.w3.org/Graphics/SVG/1.1/DTD/svg11.dtd">
<!-- Generated by graphviz version 2.43.0 (0)
 -->
<!-- Title: G Pages: 1 -->
<svg width="1026pt" height="1359pt"
 viewBox="0.00 0.00 1026.00 1359.00" xmlns="http://www.w3.org/2000/svg" xmlns:xlink="http://www.w3.org/1999/xlink">
<g id="graph0" class="graph" transform="scale(1 1) rotate(0) translate(4 1355)">
<title>G</title>
<polygon fill="white" stroke="transparent" points="-4,4 -4,-1355 1022,-1355 1022,4 -4,4"/>
<!-- sym:examples/micrograd_value.py:Value -->
<g id="node1" class="node">
<title>sym:examples/micrograd_value.py:Value</title>
<path fill="#e8f5e9" stroke="#2e7d32" d="M718,-572C718,-572 588,-572 588,-572 582,-572 576,-566 576,-560 576,-560 576,-536 576,-536 576,-530 582,-524 588,-524 588,-524 718,-524 718,-524 724,-524 730,-530 730,-536 730,-536 730,-560 730,-560 730,-566 724,-572 718,-572"/>
<text text-anchor="middle" x="653" y="-560.8" font-family="Times,serif" font-size="9.00">added</text>
<text text-anchor="middle" x="653" y="-550.8" font-family="Times,serif" font-size="9.00">examples/micrograd_value.py</text>
<text text-anchor="middle" x="653" y="-540.8" font-family="Times,serif" font-size="9.00">Value</text>
<text text-anchor="middle" x="653" y="-530.8" font-family="Times,serif" font-size="9.00">class</text>
</g>
<!-- sym:examples/micrograd_value.py:Value.__add__ -->
<g id="node2" class="node">
<title>sym:examples/micrograd_value.py:Value.__add__</title>
<path fill="#e8f5e9" stroke="#2e7d32" d="M142,-1132C142,-1132 12,-1132 12,-1132 6,-1132 0,-1126 0,-1120 0,-1120 0,-1096 0,-1096 0,-1090 6,-1084 12,-1084 12,-1084 142,-1084 142,-1084 148,-1084 154,-1090 154,-1096 154,-1096 154,-1120 154,-1120 154,-1126 148,-1132 142,-1132"/>
<text text-anchor="middle" x="77" y="-1120.8" font-family="Times,serif" font-size="9.00">added</text>
<text text-anchor="middle" x="77" y="-1110.8" font-family="Times,serif" font-size="9.00">examples/micrograd_value.py</text>
<text text-anchor="middle" x="77" y="-1100.8" font-family="Times,serif" font-size="9.00">Value.__add__</text>
<text text-anchor="middle" x="77" y="-1090.8" font-family="Times,serif" font-size="9.00">method</text>
</g>
<!-- edge_096b1608dcdc -->
<g id="node25" class="node">
<title>edge_096b1608dcdc</title>
<ellipse fill="#fffacd" stroke="#b8860b" cx="365" cy="-998" rx="27" ry="18"/>
<text text-anchor="middle" x="365" y="-995.8" font-family="Times,serif" font-size="9.00">calls</text>
</g>
<!-- sym:examples/micrograd_value.py:Value.__add__&#45;&gt;edge_096b1608dcdc -->
<g id="edge1" class="edge">
<title>sym:examples/micrograd_value.py:Value.__add__&#45;&gt;edge_096b1608dcdc</title>
<path fill="none" stroke="black" d="M154.28,-1108.99C184.41,-1107.08 218.74,-1101.96 248,-1090 286.1,-1074.43 321.92,-1042.34 343.41,-1020.5"/>
<polygon fill="black" stroke="black" points="345.98,-1022.87 350.39,-1013.24 340.93,-1018.02 345.98,-1022.87"/>
</g>
<!-- edge_9bae90733f10 -->
<g id="node26" class="node">
<title>edge_9bae90733f10</title>
<ellipse fill="#fffacd" stroke="#b8860b" cx="221" cy="-1059" rx="27" ry="18"/>
<text text-anchor="middle" x="221" y="-1056.8" font-family="Times,serif" font-size="9.00">calls</text>
</g>
<!-- sym:examples/micrograd_value.py:Value.__add__&#45;&gt;edge_9bae90733f10 -->
<g id="edge3" class="edge">
<title>sym:examples/micrograd_value.py:Value.__add__&#45;&gt;edge_9bae90733f10</title>
<path fill="none" stroke="black" d="M147.75,-1083.93C161.42,-1079.21 175.15,-1074.47 186.92,-1070.41"/>
<polygon fill="black" stroke="black" points="188.39,-1073.61 196.7,-1067.04 186.11,-1066.99 188.39,-1073.61"/>
</g>
<!-- sym:examples/micrograd_value.py:Value.__init__ -->
<g id="node3" class="node">
<title>sym:examples/micrograd_value.py:Value.__init__</title>
<path fill="#e8f5e9" stroke="#2e7d32" d="M142,-1205C142,-1205 12,-1205 12,-1205 6,-1205 0,-1199 0,-1193 0,-1193 0,-1169 0,-1169 0,-1163 6,-1157 12,-1157 12,-1157 142,-1157 142,-1157 148,-1157 154,-1163 154,-1169 154,-1169 154,-1193 154,-1193 154,-1199 148,-1205 142,-1205"/>
<text text-anchor="middle" x="77" y="-1193.8" font-family="Times,serif" font-size="9.00">added</text>
<text text-anchor="middle" x="77" y="-1183.8" font-family="Times,serif" font-size="9.00">examples/micrograd_value.py</text>
<text text-anchor="middle" x="77" y="-1173.8" font-family="Times,serif" font-size="9.00">Value.__init__</text>
<text text-anchor="middle" x="77" y="-1163.8" font-family="Times,serif" font-size="9.00">method</text>
</g>
<!-- sym:examples/micrograd_value.py:Value.__mul__ -->
<g id="node4" class="node">
<title>sym:examples/micrograd_value.py:Value.__mul__</title>
<path fill="#e8f5e9" stroke="#2e7d32" d="M142,-610C142,-610 12,-610 12,-610 6,-610 0,-604 0,-598 0,-598 0,-574 0,-574 0,-568 6,-562 12,-562 12,-562 142,-562 142,-562 148,-562 154,-568 154,-574 154,-574 154,-598 154,-598 154,-604 148,-610 142,-610"/>
<text text-anchor="middle" x="77" y="-598.8" font-family="Times,serif" font-size="9.00">added</text>
<text text-anchor="middle" x="77" y="-588.8" font-family="Times,serif" font-size="9.00">examples/micrograd_value.py</text>
<text text-anchor="middle" x="77" y="-578.8" font-family="Times,serif" font-size="9.00">Value.__mul__</text>
<text text-anchor="middle" x="77" y="-568.8" font-family="Times,serif" font-size="9.00">method</text>
</g>
<!-- edge_8a95bfc52e95 -->
<g id="node27" class="node">
<title>edge_8a95bfc52e95</title>
<ellipse fill="#fffacd" stroke="#b8860b" cx="509" cy="-576" rx="27" ry="18"/>
<text text-anchor="middle" x="509" y="-573.8" font-family="Times,serif" font-size="9.00">calls</text>
</g>
<!-- sym:examples/micrograd_value.py:Value.__mul__&#45;&gt;edge_8a95bfc52e95 -->
<g id="edge5" class="edge">
<title>sym:examples/micrograd_value.py:Value.__mul__&#45;&gt;edge_8a95bfc52e95</title>
<path fill="none" stroke="black" d="M154.38,-584.22C247.81,-582.05 402.12,-578.46 471.83,-576.84"/>
<polygon fill="black" stroke="black" points="471.96,-580.34 481.88,-576.61 471.8,-573.34 471.96,-580.34"/>
</g>
<!-- edge_e819b22f9e4b -->
<g id="node28" class="node">
<title>edge_e819b22f9e4b</title>
<ellipse fill="#fffacd" stroke="#b8860b" cx="221" cy="-632" rx="27" ry="18"/>
<text text-anchor="middle" x="221" y="-629.8" font-family="Times,serif" font-size="9.00">calls</text>
</g>
<!-- sym:examples/micrograd_value.py:Value.__mul__&#45;&gt;edge_e819b22f9e4b -->
<g id="edge7" class="edge">
<title>sym:examples/micrograd_value.py:Value.__mul__&#45;&gt;edge_e819b22f9e4b</title>
<path fill="none" stroke="black" d="M152.33,-610.08C164.31,-613.96 176.16,-617.8 186.51,-621.15"/>
<polygon fill="black" stroke="black" points="185.73,-624.58 196.32,-624.33 187.89,-617.92 185.73,-624.58"/>
</g>
<!-- sym:examples/micrograd_value.py:Value.__neg__ -->
<g id="node5" class="node">
<title>sym:examples/micrograd_value.py:Value.__neg__</title>
<path fill="#e8f5e9" stroke="#2e7d32" d="M142,-1278C142,-1278 12,-1278 12,-1278 6,-1278 0,-1272 0,-1266 0,-1266 0,-1242 0,-1242 0,-1236 6,-1230 12,-1230 12,-1230 142,-1230 142,-1230 148,-1230 154,-1236 154,-1242 154,-1242 154,-1266 154,-1266 154,-1272 148,-1278 142,-1278"/>
<text text-anchor="middle" x="77" y="-1266.8" font-family="Times,serif" font-size="9.00">added</text>
<text text-anchor="middle" x="77" y="-1256.8" font-family="Times,serif" font-size="9.00">examples/micrograd_value.py</text>
<text text-anchor="middle" x="77" y="-1246.8" font-family="Times,serif" font-size="9.00">Value.__neg__</text>
<text text-anchor="middle" x="77" y="-1236.8" font-family="Times,serif" font-size="9.00">method</text>
</g>
<!-- sym:examples/micrograd_value.py:Value.__pow__ -->
<g id="node6" class="node">
<title>sym:examples/micrograd_value.py:Value.__pow__</title>
<path fill="#e8f5e9" stroke="#2e7d32" d="M430,-331C430,-331 300,-331 300,-331 294,-331 288,-325 288,-319 288,-319 288,-295 288,-295 288,-289 294,-283 300,-283 300,-283 430,-283 430,-283 436,-283 442,-289 442,-295 442,-295 442,-319 442,-319 442,-325 436,-331 430,-331"/>
<text text-anchor="middle" x="365" y="-319.8" font-family="Times,serif" font-size="9.00">added</text>
<text text-anchor="middle" x="365" y="-309.8" font-family="Times,serif" font-size="9.00">examples/micrograd_value.py</text>
<text text-anchor="middle" x="365" y="-299.8" font-family="Times,serif" font-size="9.00">Value.__pow__</text>
<text text-anchor="middle" x="365" y="-289.8" font-family="Times,serif" font-size="9.00">method</text>
</g>
<!-- edge_f33ccc34680a -->
<g id="node29" class="node">
<title>edge_f33ccc34680a</title>
<ellipse fill="#fffacd" stroke="#b8860b" cx="509" cy="-361" rx="27" ry="18"/>
<text text-anchor="middle" x="509" y="-358.8" font-family="Times,serif" font-size="9.00">calls</text>
</g>
<!-- sym:examples/micrograd_value.py:Value.__pow__&#45;&gt;edge_f33ccc34680a -->
<g id="edge9" class="edge">
<title>sym:examples/micrograd_value.py:Value.__pow__&#45;&gt;edge_f33ccc34680a</title>
<path fill="none" stroke="black" d="M429.52,-331.16C445.45,-337.21 461.88,-343.46 475.57,-348.67"/>
<polygon fill="black" stroke="black" points="474.41,-351.97 485,-352.25 476.9,-345.43 474.41,-351.97"/>
</g>
<!-- sym:examples/micrograd_value.py:Value.__radd__ -->
<g id="node7" class="node">
<title>sym:examples/micrograd_value.py:Value.__radd__</title>
<path fill="#e8f5e9" stroke="#2e7d32" d="M142,-906C142,-906 12,-906 12,-906 6,-906 0,-900 0,-894 0,-894 0,-870 0,-870 0,-864 6,-858 12,-858 12,-858 142,-858 142,-858 148,-858 154,-864 154,-870 154,-870 154,-894 154,-894 154,-900 148,-906 142,-906"/>
<text text-anchor="middle" x="77" y="-894.8" font-family="Times,serif" font-size="9.00">added</text>
<text text-anchor="middle" x="77" y="-884.8" font-family="Times,serif" font-size="9.00">examples/micrograd_value.py</text>
<text text-anchor="middle" x="77" y="-874.8" font-family="Times,serif" font-size="9.00">Value.__radd__</text>
<text text-anchor="middle" x="77" y="-864.8" font-family="Times,serif" font-size="9.00">method</text>
</g>
<!-- edge_ef25d9bb237e -->
<g id="node30" class="node">
<title>edge_ef25d9bb237e</title>
<ellipse fill="#fffacd" stroke="#b8860b" cx="221" cy="-876" rx="27" ry="18"/>
<text text-anchor="middle" x="221" y="-873.8" font-family="Times,serif" font-size="9.00">calls</text>
</g>
<!-- sym:examples/micrograd_value.py:Value.__radd__&#45;&gt;edge_ef25d9bb237e -->
<g id="edge11" class="edge">
<title>sym:examples/micrograd_value.py:Value.__radd__&#45;&gt;edge_ef25d9bb237e</title>
<path fill="none" stroke="black" d="M154.4,-878.77C164.59,-878.34 174.64,-877.92 183.68,-877.53"/>
<polygon fill="black" stroke="black" points="183.95,-881.03 193.79,-877.11 183.66,-874.03 183.95,-881.03"/>
</g>
<!-- sym:examples/micrograd_value.py:Value.__repr__ -->
<g id="node8" class="node">
<title>sym:examples/micrograd_value.py:Value.__repr__</title>
<path fill="#e8f5e9" stroke="#2e7d32" d="M142,-1351C142,-1351 12,-1351 12,-1351 6,-1351 0,-1345 0,-1339 0,-1339 0,-1315 0,-1315 0,-1309 6,-1303 12,-1303 12,-1303 142,-1303 142,-1303 148,-1303 154,-1309 154,-1315 154,-1315 154,-1339 154,-1339 154,-1345 148,-1351 142,-1351"/>
<text text-anchor="middle" x="77" y="-1339.8" font-family="Times,serif" font-size="9.00">added</text>
<text text-anchor="middle" x="77" y="-1329.8" font-family="Times,serif" font-size="9.00">examples/micrograd_value.py</text>
<text text-anchor="middle" x="77" y="-1319.8" font-family="Times,serif" font-size="9.00">Value.__repr__</text>
<text text-anchor="middle" x="77" y="-1309.8" font-family="Times,serif" font-size="9.00">method</text>
</g>
<!-- sym:examples/micrograd_value.py:Value.__rmul__ -->
<g id="node9" class="node">
<title>sym:examples/micrograd_value.py:Value.__rmul__</title>
<path fill="#e8f5e9" stroke="#2e7d32" d="M142,-833C142,-833 12,-833 12,-833 6,-833 0,-827 0,-821 0,-821 0,-797 0,-797 0,-791 6,-785 12,-785 12,-785 142,-785 142,-785 148,-785 154,-791 154,-797 154,-797 154,-821 154,-821 154,-827 148,-833 142,-833"/>
<text text-anchor="middle" x="77" y="-821.8" font-family="Times,serif" font-size="9.00">added</text>
<text text-anchor="middle" x="77" y="-811.8" font-family="Times,serif" font-size="9.00">examples/micrograd_value.py</text>
<text text-anchor="middle" x="77" y="-801.8" font-family="Times,serif" font-size="9.00">Value.__rmul__</text>
<text text-anchor="middle" x="77" y="-791.8" font-family="Times,serif" font-size="9.00">method</text>
</g>
<!-- edge_1b5297ee17ea -->
<g id="node31" class="node">
<title>edge_1b5297ee17ea</title>
<ellipse fill="#fffacd" stroke="#b8860b" cx="221" cy="-815" rx="27" ry="18"/>
<text text-anchor="middle" x="221" y="-812.8" font-family="Times,serif" font-size="9.00">calls</text>
</g>
<!-- sym:examples/micrograd_value.py:Value.__rmul__&#45;&gt;edge_1b5297ee17ea -->
<g id="edge13" class="edge">
<title>sym:examples/micrograd_value.py:Value.__rmul__&#45;&gt;edge_1b5297ee17ea</title>
<path fill="none" stroke="black" d="M154.4,-812.23C164.59,-812.66 174.64,-813.08 183.68,-813.47"/>
<polygon fill="black" stroke="black" points="183.66,-816.97 193.79,-813.89 183.95,-809.97 183.66,-816.97"/>
</g>
<!-- sym:examples/micrograd_value.py:Value.__rsub__ -->
<g id="node10" class="node">
<title>sym:examples/micrograd_value.py:Value.__rsub__</title>
<path fill="#e8f5e9" stroke="#2e7d32" d="M142,-760C142,-760 12,-760 12,-760 6,-760 0,-754 0,-748 0,-748 0,-724 0,-724 0,-718 6,-712 12,-712 12,-712 142,-712 142,-712 148,-712 154,-718 154,-724 154,-724 154,-748 154,-748 154,-754 148,-760 142,-760"/>
<text text-anchor="middle" x="77" y="-748.8" font-family="Times,serif" font-size="9.00">added</text>
<text text-anchor="middle" x="77" y="-738.8" font-family="Times,serif" font-size="9.00">examples/micrograd_value.py</text>
<text text-anchor="middle" x="77" y="-728.8" font-family="Times,serif" font-size="9.00">Value.__rsub__</text>
<text text-anchor="middle" x="77" y="-718.8" font-family="Times,serif" font-size="9.00">method</text>
</g>
<!-- edge_1a2c9fb572e8 -->
<g id="node32" class="node">
<title>edge_1a2c9fb572e8</title>
<ellipse fill="#fffacd" stroke="#b8860b" cx="221" cy="-754" rx="27" ry="18"/>
<text text-anchor="middle" x="221" y="-751.8" font-family="Times,serif" font-size="9.00">calls</text>
</g>
<!-- sym:examples/micrograd_value.py:Value.__rsub__&#45;&gt;edge_1a2c9fb572e8 -->
<g id="edge15" class="edge">
<title>sym:examples/micrograd_value.py:Value.__rsub__&#45;&gt;edge_1a2c9fb572e8</title>
<path fill="none" stroke="black" d="M154.4,-745.68C164.9,-747.02 175.23,-748.33 184.48,-749.5"/>
<polygon fill="black" stroke="black" points="184.06,-752.97 194.42,-750.76 184.94,-746.03 184.06,-752.97"/>
</g>
<!-- sym:examples/micrograd_value.py:Value.__rtruediv__ -->
<g id="node11" class="node">
<title>sym:examples/micrograd_value.py:Value.__rtruediv__</title>
<path fill="#e8f5e9" stroke="#2e7d32" d="M142,-687C142,-687 12,-687 12,-687 6,-687 0,-681 0,-675 0,-675 0,-651 0,-651 0,-645 6,-639 12,-639 12,-639 142,-639 142,-639 148,-639 154,-645 154,-651 154,-651 154,-675 154,-675 154,-681 148,-687 142,-687"/>
<text text-anchor="middle" x="77" y="-675.8" font-family="Times,serif" font-size="9.00">added</text>
<text text-anchor="middle" x="77" y="-665.8" font-family="Times,serif" font-size="9.00">examples/micrograd_value.py</text>
<text text-anchor="middle" x="77" y="-655.8" font-family="Times,serif" font-size="9.00">Value.__rtruediv__</text>
<text text-anchor="middle" x="77" y="-645.8" font-family="Times,serif" font-size="9.00">method</text>
</g>
<!-- edge_ba192c7396c8 -->
<g id="node33" class="node">
<title>edge_ba192c7396c8</title>
<ellipse fill="#fffacd" stroke="#b8860b" cx="221" cy="-693" rx="27" ry="18"/>
<text text-anchor="middle" x="221" y="-690.8" font-family="Times,serif" font-size="9.00">calls</text>
</g>
<!-- sym:examples/micrograd_value.py:Value.__rtruediv__&#45;&gt;edge_ba192c7396c8 -->
<g id="edge17" class="edge">
<title>sym:examples/micrograd_value.py:Value.__rtruediv__&#45;&gt;edge_ba192c7396c8</title>
<path fill="none" stroke="black" d="M154.4,-679.14C165.09,-681.4 175.61,-683.62 184.99,-685.6"/>
<polygon fill="black" stroke="black" points="184.53,-689.08 195.04,-687.73 185.98,-682.24 184.53,-689.08"/>
</g>
<!-- sym:examples/micrograd_value.py:Value.__sub__ -->
<g id="node12" class="node">
<title>sym:examples/micrograd_value.py:Value.__sub__</title>
<path fill="#e8f5e9" stroke="#2e7d32" d="M142,-1052C142,-1052 12,-1052 12,-1052 6,-1052 0,-1046 0,-1040 0,-1040 0,-1016 0,-1016 0,-1010 6,-1004 12,-1004 12,-1004 142,-1004 142,-1004 148,-1004 154,-1010 154,-1016 154,-1016 154,-1040 154,-1040 154,-1046 148,-1052 142,-1052"/>
<text text-anchor="middle" x="77" y="-1040.8" font-family="Times,serif" font-size="9.00">added</text>
<text text-anchor="middle" x="77" y="-1030.8" font-family="Times,serif" font-size="9.00">examples/micrograd_value.py</text>
<text text-anchor="middle" x="77" y="-1020.8" font-family="Times,serif" font-size="9.00">Value.__sub__</text>
<text text-anchor="middle" x="77" y="-1010.8" font-family="Times,serif" font-size="9.00">method</text>
</g>
<!-- edge_97072915711d -->
<g id="node34" class="node">
<title>edge_97072915711d</title>
<ellipse fill="#fffacd" stroke="#b8860b" cx="221" cy="-998" rx="27" ry="18"/>
<text text-anchor="middle" x="221" y="-995.8" font-family="Times,serif" font-size="9.00">calls</text>
</g>
<!-- sym:examples/micrograd_value.py:Value.__sub__&#45;&gt;edge_97072915711d -->
<g id="edge19" class="edge">
<title>sym:examples/micrograd_value.py:Value.__sub__&#45;&gt;edge_97072915711d</title>
<path fill="none" stroke="black" d="M154.4,-1011.86C165.09,-1009.6 175.61,-1007.38 184.99,-1005.4"/>
<polygon fill="black" stroke="black" points="185.98,-1008.76 195.04,-1003.27 184.53,-1001.92 185.98,-1008.76"/>
</g>
<!-- sym:examples/micrograd_value.py:Value.__truediv__ -->
<g id="node13" class="node">
<title>sym:examples/micrograd_value.py:Value.__truediv__</title>
<path fill="#e8f5e9" stroke="#2e7d32" d="M142,-979C142,-979 12,-979 12,-979 6,-979 0,-973 0,-967 0,-967 0,-943 0,-943 0,-937 6,-931 12,-931 12,-931 142,-931 142,-931 148,-931 154,-937 154,-943 154,-943 154,-967 154,-967 154,-973 148,-979 142,-979"/>
<text text-anchor="middle" x="77" y="-967.8" font-family="Times,serif" font-size="9.00">added</text>
<text text-anchor="middle" x="77" y="-957.8" font-family="Times,serif" font-size="9.00">examples/micrograd_value.py</text>
<text text-anchor="middle" x="77" y="-947.8" font-family="Times,serif" font-size="9.00">Value.__truediv__</text>
<text text-anchor="middle" x="77" y="-937.8" font-family="Times,serif" font-size="9.00">method</text>
</g>
<!-- edge_81f34b2cecbe -->
<g id="node35" class="node">
<title>edge_81f34b2cecbe</title>
<ellipse fill="#fffacd" stroke="#b8860b" cx="221" cy="-937" rx="27" ry="18"/>
<text text-anchor="middle" x="221" y="-934.8" font-family="Times,serif" font-size="9.00">calls</text>
</g>
<!-- sym:examples/micrograd_value.py:Value.__truediv__&#45;&gt;edge_81f34b2cecbe -->
<g id="edge21" class="edge">
<title>sym:examples/micrograd_value.py:Value.__truediv__&#45;&gt;edge_81f34b2cecbe</title>
<path fill="none" stroke="black" d="M154.4,-945.32C164.9,-943.98 175.23,-942.67 184.48,-941.5"/>
<polygon fill="black" stroke="black" points="184.94,-944.97 194.42,-940.24 184.06,-938.03 184.94,-944.97"/>
</g>
<!-- sym:examples/micrograd_value.py:Value.backward -->
<g id="node14" class="node">
<title>sym:examples/micrograd_value.py:Value.backward</title>
<path fill="#e8f5e9" stroke="#2e7d32" d="M430,-404C430,-404 300,-404 300,-404 294,-404 288,-398 288,-392 288,-392 288,-368 288,-368 288,-362 294,-356 300,-356 300,-356 430,-356 430,-356 436,-356 442,-362 442,-368 442,-368 442,-392 442,-392 442,-398 436,-404 430,-404"/>
<text text-anchor="middle" x="365" y="-392.8" font-family="Times,serif" font-size="9.00">added</text>
<text text-anchor="middle" x="365" y="-382.8" font-family="Times,serif" font-size="9.00">examples/micrograd_value.py</text>
<text text-anchor="middle" x="365" y="-372.8" font-family="Times,serif" font-size="9.00">Value.backward</text>
<text text-anchor="middle" x="365" y="-362.8" font-family="Times,serif" font-size="9.00">method</text>
</g>
<!-- sym:examples/micrograd_value.py:Value.tanh -->
<g id="node15" class="node">
<title>sym:examples/micrograd_value.py:Value.tanh</title>
<path fill="#e8f5e9" stroke="#2e7d32" d="M430,-477C430,-477 300,-477 300,-477 294,-477 288,-471 288,-465 288,-465 288,-441 288,-441 288,-435 294,-429 300,-429 300,-429 430,-429 430,-429 436,-429 442,-435 442,-441 442,-441 442,-465 442,-465 442,-471 436,-477 430,-477"/>
<text text-anchor="middle" x="365" y="-465.8" font-family="Times,serif" font-size="9.00">added</text>
<text text-anchor="middle" x="365" y="-455.8" font-family="Times,serif" font-size="9.00">examples/micrograd_value.py</text>
<text text-anchor="middle" x="365" y="-445.8" font-family="Times,serif" font-size="9.00">Value.tanh</text>
<text text-anchor="middle" x="365" y="-435.8" font-family="Times,serif" font-size="9.00">method</text>
</g>
<!-- edge_123ff071cafa -->
<g id="node36" class="node">
<title>edge_123ff071cafa</title>
<ellipse fill="#fffacd" stroke="#b8860b" cx="509" cy="-459" rx="27" ry="18"/>
<text text-anchor="middle" x="509" y="-456.8" font-family="Times,serif" font-size="9.00">calls</text>
</g>
<!-- sym:examples/micrograd_value.py:Value.tanh&#45;&gt;edge_123ff071cafa -->
<g id="edge23" class="edge">
<title>sym:examples/micrograd_value.py:Value.tanh&#45;&gt;edge_123ff071cafa</title>
<path fill="none" stroke="black" d="M442.4,-456.23C452.59,-456.66 462.64,-457.08 471.68,-457.47"/>
<polygon fill="black" stroke="black" points="471.66,-460.97 481.79,-457.89 471.95,-453.97 471.66,-460.97"/>
</g>
<!-- sym:examples/micrograd_value.py:_as_value -->
<g id="node16" class="node">
<title>sym:examples/micrograd_value.py:_as_value</title>
<path fill="#e8f5e9" stroke="#2e7d32" d="M430,-839C430,-839 300,-839 300,-839 294,-839 288,-833 288,-827 288,-827 288,-803 288,-803 288,-797 294,-791 300,-791 300,-791 430,-791 430,-791 436,-791 442,-797 442,-803 442,-803 442,-827 442,-827 442,-833 436,-839 430,-839"/>
<text text-anchor="middle" x="365" y="-827.8" font-family="Times,serif" font-size="9.00">added</text>
<text text-anchor="middle" x="365" y="-817.8" font-family="Times,serif" font-size="9.00">examples/micrograd_value.py</text>
<text text-anchor="middle" x="365" y="-807.8" font-family="Times,serif" font-size="9.00">_as_value</text>
<text text-anchor="middle" x="365" y="-797.8" font-family="Times,serif" font-size="9.00">function</text>
</g>
<!-- edge_8270bc388552 -->
<g id="node37" class="node">
<title>edge_8270bc388552</title>
<ellipse fill="#fffacd" stroke="#b8860b" cx="509" cy="-726" rx="27" ry="18"/>
<text text-anchor="middle" x="509" y="-723.8" font-family="Times,serif" font-size="9.00">calls</text>
</g>
<!-- sym:examples/micrograd_value.py:_as_value&#45;&gt;edge_8270bc388552 -->
<g id="edge25" class="edge">
<title>sym:examples/micrograd_value.py:_as_value&#45;&gt;edge_8270bc388552</title>
<path fill="none" stroke="black" d="M404.43,-790.92C428.29,-775.96 458.41,-757.08 480.02,-743.54"/>
<polygon fill="black" stroke="black" points="482.09,-746.37 488.71,-738.09 478.38,-740.44 482.09,-746.37"/>
</g>
<!-- sym:examples/micrograd_value.py:_demo -->
<g id="node17" class="node">
<title>sym:examples/micrograd_value.py:_demo</title>
<path fill="#e8f5e9" stroke="#2e7d32" d="M142,-441C142,-441 12,-441 12,-441 6,-441 0,-435 0,-429 0,-429 0,-405 0,-405 0,-399 6,-393 12,-393 12,-393 142,-393 142,-393 148,-393 154,-399 154,-405 154,-405 154,-429 154,-429 154,-435 148,-441 142,-441"/>
<text text-anchor="middle" x="77" y="-429.8" font-family="Times,serif" font-size="9.00">added</text>
<text text-anchor="middle" x="77" y="-419.8" font-family="Times,serif" font-size="9.00">examples/micrograd_value.py</text>
<text text-anchor="middle" x="77" y="-409.8" font-family="Times,serif" font-size="9.00">_demo</text>
<text text-anchor="middle" x="77" y="-399.8" font-family="Times,serif" font-size="9.00">function</text>
</g>
<!-- edge_4a8405ab4863 -->
<g id="node38" class="node">
<title>edge_4a8405ab4863</title>
<ellipse fill="#fffacd" stroke="#b8860b" cx="365" cy="-520" rx="27" ry="18"/>
<text text-anchor="middle" x="365" y="-517.8" font-family="Times,serif" font-size="9.00">calls</text>
</g>
<!-- sym:examples/micrograd_value.py:_demo&#45;&gt;edge_4a8405ab4863 -->
<g id="edge27" class="edge">
<title>sym:examples/micrograd_value.py:_demo&#45;&gt;edge_4a8405ab4863</title>
<path fill="none" stroke="black" d="M117.95,-441.09C139.81,-453.47 167.73,-468.02 194,-478 239.07,-495.13 293.54,-507.15 328.47,-513.82"/>
<polygon fill="black" stroke="black" points="328.18,-517.33 338.65,-515.72 329.46,-510.45 328.18,-517.33"/>
</g>
<!-- edge_a517e81686c1 -->
<g id="node39" class="node">
<title>edge_a517e81686c1</title>
<ellipse fill="#fffacd" stroke="#b8860b" cx="221" cy="-383" rx="27" ry="18"/>
<text text-anchor="middle" x="221" y="-380.8" font-family="Times,serif" font-size="9.00">calls</text>
</g>
<!-- sym:examples/micrograd_value.py:_demo&#45;&gt;edge_a517e81686c1 -->
<g id="edge29" class="edge">
<title>sym:examples/micrograd_value.py:_demo&#45;&gt;edge_a517e81686c1</title>
<path fill="none" stroke="black" d="M154.4,-398.71C165.3,-396.1 176.02,-393.53 185.54,-391.25"/>
<polygon fill="black" stroke="black" points="186.44,-394.63 195.35,-388.9 184.81,-387.83 186.44,-394.63"/>
</g>
<!-- edge_1b5e3619f842 -->
<g id="node40" class="node">
<title>edge_1b5e3619f842</title>
<ellipse fill="#fffacd" stroke="#b8860b" cx="221" cy="-274" rx="27" ry="18"/>
<text text-anchor="middle" x="221" y="-271.8" font-family="Times,serif" font-size="9.00">calls</text>
</g>
<!-- sym:examples/micrograd_value.py:_demo&#45;&gt;edge_1b5e3619f842 -->
<g id="edge31" class="edge">
<title>sym:examples/micrograd_value.py:_demo&#45;&gt;edge_1b5e3619f842</title>
<path fill="none" stroke="black" d="M102.09,-392.74C129.02,-365.62 172.26,-322.07 198.22,-295.93"/>
<polygon fill="black" stroke="black" points="200.81,-298.3 205.37,-288.73 195.84,-293.36 200.81,-298.3"/>
</g>
<!-- edge_fd62a7179a19 -->
<g id="node41" class="node">
<title>edge_fd62a7179a19</title>
<ellipse fill="#fffacd" stroke="#b8860b" cx="221" cy="-447" rx="27" ry="18"/>
<text text-anchor="middle" x="221" y="-444.8" font-family="Times,serif" font-size="9.00">calls</text>
</g>
<!-- sym:examples/micrograd_value.py:_demo&#45;&gt;edge_fd62a7179a19 -->
<g id="edge33" class="edge">
<title>sym:examples/micrograd_value.py:_demo&#45;&gt;edge_fd62a7179a19</title>
<path fill="none" stroke="black" d="M154.4,-433.14C165.09,-435.4 175.61,-437.62 184.99,-439.6"/>
<polygon fill="black" stroke="black" points="184.53,-443.08 195.04,-441.73 185.98,-436.24 184.53,-443.08"/>
</g>
<!-- sym:examples/micrograd_value.py:_dot_quote -->
<g id="node18" class="node">
<title>sym:examples/micrograd_value.py:_dot_quote</title>
<path fill="#e8f5e9" stroke="#2e7d32" d="M1006,-353C1006,-353 876,-353 876,-353 870,-353 864,-347 864,-341 864,-341 864,-317 864,-317 864,-311 870,-305 876,-305 876,-305 1006,-305 1006,-305 1012,-305 1018,-311 1018,-317 1018,-317 1018,-341 1018,-341 1018,-347 1012,-353 1006,-353"/>
<text text-anchor="middle" x="941" y="-341.8" font-family="Times,serif" font-size="9.00">added</text>
<text text-anchor="middle" x="941" y="-331.8" font-family="Times,serif" font-size="9.00">examples/micrograd_value.py</text>
<text text-anchor="middle" x="941" y="-321.8" font-family="Times,serif" font-size="9.00">_dot_quote</text>
<text text-anchor="middle" x="941" y="-311.8" font-family="Times,serif" font-size="9.00">function</text>
</g>
<!-- sym:examples/micrograd_value.py:_value_html_label -->
<g id="node19" class="node">
<title>sym:examples/micrograd_value.py:_value_html_label</title>
<path fill="#e8f5e9" stroke="#2e7d32" d="M1006,-256C1006,-256 876,-256 876,-256 870,-256 864,-250 864,-244 864,-244 864,-220 864,-220 864,-214 870,-208 876,-208 876,-208 1006,-208 1006,-208 1012,-208 1018,-214 1018,-220 1018,-220 1018,-244 1018,-244 1018,-250 1012,-256 1006,-256"/>
<text text-anchor="middle" x="941" y="-244.8" font-family="Times,serif" font-size="9.00">added</text>
<text text-anchor="middle" x="941" y="-234.8" font-family="Times,serif" font-size="9.00">examples/micrograd_value.py</text>
<text text-anchor="middle" x="941" y="-224.8" font-family="Times,serif" font-size="9.00">_value_html_label</text>
<text text-anchor="middle" x="941" y="-214.8" font-family="Times,serif" font-size="9.00">function</text>
</g>
<!-- sym:examples/micrograd_value.py:dot_source -->
<g id="node20" class="node">
<title>sym:examples/micrograd_value.py:dot_source</title>
<path fill="#e8f5e9" stroke="#2e7d32" d="M718,-292C718,-292 588,-292 588,-292 582,-292 576,-286 576,-280 576,-280 576,-256 576,-256 576,-250 582,-244 588,-244 588,-244 718,-244 718,-244 724,-244 730,-250 730,-256 730,-256 730,-280 730,-280 730,-286 724,-292 718,-292"/>
<text text-anchor="middle" x="653" y="-280.8" font-family="Times,serif" font-size="9.00">added</text>
<text text-anchor="middle" x="653" y="-270.8" font-family="Times,serif" font-size="9.00">examples/micrograd_value.py</text>
<text text-anchor="middle" x="653" y="-260.8" font-family="Times,serif" font-size="9.00">dot_source</text>
<text text-anchor="middle" x="653" y="-250.8" font-family="Times,serif" font-size="9.00">function</text>
</g>
<!-- edge_38ff11301349 -->
<g id="node42" class="node">
<title>edge_38ff11301349</title>
<ellipse fill="#fffacd" stroke="#b8860b" cx="797" cy="-329" rx="27" ry="18"/>
<text text-anchor="middle" x="797" y="-326.8" font-family="Times,serif" font-size="9.00">calls</text>
</g>
<!-- sym:examples/micrograd_value.py:dot_source&#45;&gt;edge_38ff11301349 -->
<g id="edge35" class="edge">
<title>sym:examples/micrograd_value.py:dot_source&#45;&gt;edge_38ff11301349</title>
<path fill="none" stroke="black" d="M710.12,-292.11C728.61,-300.05 748.51,-308.6 764.49,-315.47"/>
<polygon fill="black" stroke="black" points="763.32,-318.77 773.89,-319.5 766.08,-312.34 763.32,-318.77"/>
</g>
<!-- edge_b7869cef67c5 -->
<g id="node43" class="node">
<title>edge_b7869cef67c5</title>
<ellipse fill="#fffacd" stroke="#b8860b" cx="797" cy="-268" rx="27" ry="18"/>
<text text-anchor="middle" x="797" y="-265.8" font-family="Times,serif" font-size="9.00">calls</text>
</g>
<!-- sym:examples/micrograd_value.py:dot_source&#45;&gt;edge_b7869cef67c5 -->
<g id="edge37" class="edge">
<title>sym:examples/micrograd_value.py:dot_source&#45;&gt;edge_b7869cef67c5</title>
<path fill="none" stroke="black" d="M730.4,-268C740.59,-268 750.64,-268 759.68,-268"/>
<polygon fill="black" stroke="black" points="759.79,-271.5 769.79,-268 759.79,-264.5 759.79,-271.5"/>
</g>
<!-- edge_539a386f51e9 -->
<g id="node44" class="node">
<title>edge_539a386f51e9</title>
<ellipse fill="#fffacd" stroke="#b8860b" cx="797" cy="-146" rx="27" ry="18"/>
<text text-anchor="middle" x="797" y="-143.8" font-family="Times,serif" font-size="9.00">calls</text>
</g>
<!-- sym:examples/micrograd_value.py:dot_source&#45;&gt;edge_539a386f51e9 -->
<g id="edge39" class="edge">
<title>sym:examples/micrograd_value.py:dot_source&#45;&gt;edge_539a386f51e9</title>
<path fill="none" stroke="black" d="M712.73,-244C718.84,-240.4 724.74,-236.4 730,-232 753.46,-212.38 751.07,-200.03 770,-176 771.8,-173.72 773.71,-171.37 775.65,-169.04"/>
<polygon fill="black" stroke="black" points="778.4,-171.22 782.22,-161.34 773.07,-166.68 778.4,-171.22"/>
</g>
<!-- sym:examples/micrograd_value.py:draw_dot -->
<g id="node21" class="node">
<title>sym:examples/micrograd_value.py:draw_dot</title>
<path fill="#e8f5e9" stroke="#2e7d32" d="M718,-219C718,-219 588,-219 588,-219 582,-219 576,-213 576,-207 576,-207 576,-183 576,-183 576,-177 582,-171 588,-171 588,-171 718,-171 718,-171 724,-171 730,-177 730,-183 730,-183 730,-207 730,-207 730,-213 724,-219 718,-219"/>
<text text-anchor="middle" x="653" y="-207.8" font-family="Times,serif" font-size="9.00">added</text>
<text text-anchor="middle" x="653" y="-197.8" font-family="Times,serif" font-size="9.00">examples/micrograd_value.py</text>
<text text-anchor="middle" x="653" y="-187.8" font-family="Times,serif" font-size="9.00">draw_dot</text>
<text text-anchor="middle" x="653" y="-177.8" font-family="Times,serif" font-size="9.00">function</text>
</g>
<!-- edge_2cc7dca2ce46 -->
<g id="node45" class="node">
<title>edge_2cc7dca2ce46</title>
<ellipse fill="#fffacd" stroke="#b8860b" cx="797" cy="-207" rx="27" ry="18"/>
<text text-anchor="middle" x="797" y="-204.8" font-family="Times,serif" font-size="9.00">calls</text>
</g>
<!-- sym:examples/micrograd_value.py:draw_dot&#45;&gt;edge_2cc7dca2ce46 -->
<g id="edge41" class="edge">
<title>sym:examples/micrograd_value.py:draw_dot&#45;&gt;edge_2cc7dca2ce46</title>
<path fill="none" stroke="black" d="M730.4,-201.46C740.69,-202.33 750.82,-203.18 759.93,-203.95"/>
<polygon fill="black" stroke="black" points="759.85,-207.46 770.11,-204.81 760.44,-200.48 759.85,-207.46"/>
</g>
<!-- edge_f5e85f7cd5b1 -->
<g id="node46" class="node">
<title>edge_f5e85f7cd5b1</title>
<ellipse fill="#fffacd" stroke="#b8860b" cx="797" cy="-85" rx="27" ry="18"/>
<text text-anchor="middle" x="797" y="-82.8" font-family="Times,serif" font-size="9.00">calls</text>
</g>
<!-- sym:examples/micrograd_value.py:draw_dot&#45;&gt;edge_f5e85f7cd5b1 -->
<g id="edge43" class="edge">
<title>sym:examples/micrograd_value.py:draw_dot&#45;&gt;edge_f5e85f7cd5b1</title>
<path fill="none" stroke="black" d="M685.16,-170.86C710.87,-150.95 746.88,-123.05 770.79,-104.53"/>
<polygon fill="black" stroke="black" points="772.95,-107.28 778.71,-98.39 768.66,-101.75 772.95,-107.28"/>
</g>
<!-- sym:examples/micrograd_value.py:render_svg -->
<g id="node22" class="node">
<title>sym:examples/micrograd_value.py:render_svg</title>
<path fill="#e8f5e9" stroke="#2e7d32" d="M430,-258C430,-258 300,-258 300,-258 294,-258 288,-252 288,-246 288,-246 288,-222 288,-222 288,-216 294,-210 300,-210 300,-210 430,-210 430,-210 436,-210 442,-216 442,-222 442,-222 442,-246 442,-246 442,-252 436,-258 430,-258"/>
<text text-anchor="middle" x="365" y="-246.8" font-family="Times,serif" font-size="9.00">added</text>
<text text-anchor="middle" x="365" y="-236.8" font-family="Times,serif" font-size="9.00">examples/micrograd_value.py</text>
<text text-anchor="middle" x="365" y="-226.8" font-family="Times,serif" font-size="9.00">render_svg</text>
<text text-anchor="middle" x="365" y="-216.8" font-family="Times,serif" font-size="9.00">function</text>
</g>
<!-- edge_54ddb5d94780 -->
<g id="node47" class="node">
<title>edge_54ddb5d94780</title>
<ellipse fill="#fffacd" stroke="#b8860b" cx="509" cy="-265" rx="27" ry="18"/>
<text text-anchor="middle" x="509" y="-262.8" font-family="Times,serif" font-size="9.00">calls</text>
</g>
<!-- sym:examples/micrograd_value.py:render_svg&#45;&gt;edge_54ddb5d94780 -->
<g id="edge45" class="edge">
<title>sym:examples/micrograd_value.py:render_svg&#45;&gt;edge_54ddb5d94780</title>
<path fill="none" stroke="black" d="M442.4,-250.68C453.09,-253.01 463.61,-255.31 472.99,-257.36"/>
<polygon fill="black" stroke="black" points="472.53,-260.84 483.04,-259.55 474.02,-254 472.53,-260.84"/>
</g>
<!-- edge_7a1b9303f164 -->
<g id="node48" class="node">
<title>edge_7a1b9303f164</title>
<ellipse fill="#fffacd" stroke="#b8860b" cx="509" cy="-201" rx="27" ry="18"/>
<text text-anchor="middle" x="509" y="-198.8" font-family="Times,serif" font-size="9.00">calls</text>
</g>
<!-- sym:examples/micrograd_value.py:render_svg&#45;&gt;edge_7a1b9303f164 -->
<g id="edge47" class="edge">
<title>sym:examples/micrograd_value.py:render_svg&#45;&gt;edge_7a1b9303f164</title>
<path fill="none" stroke="black" d="M442.4,-216.24C453.3,-213.71 464.02,-211.22 473.54,-209.01"/>
<polygon fill="black" stroke="black" points="474.4,-212.4 483.35,-206.73 472.82,-205.58 474.4,-212.4"/>
</g>
<!-- sym:examples/micrograd_value.py:trace -->
<g id="node23" class="node">
<title>sym:examples/micrograd_value.py:trace</title>
<path fill="#e8f5e9" stroke="#2e7d32" d="M1006,-109C1006,-109 876,-109 876,-109 870,-109 864,-103 864,-97 864,-97 864,-73 864,-73 864,-67 870,-61 876,-61 876,-61 1006,-61 1006,-61 1012,-61 1018,-67 1018,-73 1018,-73 1018,-97 1018,-97 1018,-103 1012,-109 1006,-109"/>
<text text-anchor="middle" x="941" y="-97.8" font-family="Times,serif" font-size="9.00">added</text>
<text text-anchor="middle" x="941" y="-87.8" font-family="Times,serif" font-size="9.00">examples/micrograd_value.py</text>
<text text-anchor="middle" x="941" y="-77.8" font-family="Times,serif" font-size="9.00">trace</text>
<text text-anchor="middle" x="941" y="-67.8" font-family="Times,serif" font-size="9.00">function</text>
</g>
<!-- sym:examples/micrograd_value.py:zero_grad -->
<g id="node24" class="node">
<title>sym:examples/micrograd_value.py:zero_grad</title>
<path fill="#e8f5e9" stroke="#2e7d32" d="M718,-48C718,-48 588,-48 588,-48 582,-48 576,-42 576,-36 576,-36 576,-12 576,-12 576,-6 582,0 588,0 588,0 718,0 718,0 724,0 730,-6 730,-12 730,-12 730,-36 730,-36 730,-42 724,-48 718,-48"/>
<text text-anchor="middle" x="653" y="-36.8" font-family="Times,serif" font-size="9.00">added</text>
<text text-anchor="middle" x="653" y="-26.8" font-family="Times,serif" font-size="9.00">examples/micrograd_value.py</text>
<text text-anchor="middle" x="653" y="-16.8" font-family="Times,serif" font-size="9.00">zero_grad</text>
<text text-anchor="middle" x="653" y="-6.8" font-family="Times,serif" font-size="9.00">function</text>
</g>
<!-- edge_d914404aa0b5 -->
<g id="node49" class="node">
<title>edge_d914404aa0b5</title>
<ellipse fill="#fffacd" stroke="#b8860b" cx="797" cy="-24" rx="27" ry="18"/>
<text text-anchor="middle" x="797" y="-21.8" font-family="Times,serif" font-size="9.00">calls</text>
</g>
<!-- sym:examples/micrograd_value.py:zero_grad&#45;&gt;edge_d914404aa0b5 -->
<g id="edge49" class="edge">
<title>sym:examples/micrograd_value.py:zero_grad&#45;&gt;edge_d914404aa0b5</title>
<path fill="none" stroke="black" d="M730.4,-24C740.59,-24 750.64,-24 759.68,-24"/>
<polygon fill="black" stroke="black" points="759.79,-27.5 769.79,-24 759.79,-20.5 759.79,-27.5"/>
</g>
<!-- edge_096b1608dcdc&#45;&gt;sym:examples/micrograd_value.py:Value -->
<g id="edge2" class="edge">
<title>edge_096b1608dcdc&#45;&gt;sym:examples/micrograd_value.py:Value</title>
<path fill="none" stroke="black" d="M378.16,-982.05C406.96,-944.01 481.02,-844.6 536,-757 573.94,-696.55 613.26,-622.99 634.98,-581.22"/>
<polygon fill="black" stroke="black" points="638.11,-582.8 639.6,-572.31 631.89,-579.57 638.11,-582.8"/>
</g>
<!-- edge_9bae90733f10&#45;&gt;sym:examples/micrograd_value.py:_as_value -->
<g id="edge4" class="edge">
<title>edge_9bae90733f10&#45;&gt;sym:examples/micrograd_value.py:_as_value</title>
<path fill="none" stroke="black" d="M236.17,-1043.95C240.21,-1039.32 244.47,-1034.1 248,-1029 289.81,-968.59 328.33,-891.53 348.75,-848.3"/>
<polygon fill="black" stroke="black" points="351.99,-849.64 353.06,-839.1 345.65,-846.67 351.99,-849.64"/>
</g>
<!-- edge_8a95bfc52e95&#45;&gt;sym:examples/micrograd_value.py:Value -->
<g id="edge6" class="edge">
<title>edge_8a95bfc52e95&#45;&gt;sym:examples/micrograd_value.py:Value</title>
<path fill="none" stroke="black" d="M535.06,-571.06C544.05,-569.29 554.76,-567.17 566,-564.96"/>
<polygon fill="black" stroke="black" points="566.85,-568.36 575.98,-562.99 565.5,-561.49 566.85,-568.36"/>
</g>
<!-- edge_e819b22f9e4b&#45;&gt;sym:examples/micrograd_value.py:_as_value -->
<g id="edge8" class="edge">
<title>edge_e819b22f9e4b&#45;&gt;sym:examples/micrograd_value.py:_as_value</title>
<path fill="none" stroke="black" d="M235.37,-647.65C239.47,-652.53 243.96,-657.95 248,-663 280.51,-703.63 316.7,-751.5 339.88,-782.5"/>
<polygon fill="black" stroke="black" points="337.27,-784.86 346.05,-790.78 342.88,-780.67 337.27,-784.86"/>
</g>
<!-- edge_f33ccc34680a&#45;&gt;sym:examples/micrograd_value.py:Value -->
<g id="edge10" class="edge">
<title>edge_f33ccc34680a&#45;&gt;sym:examples/micrograd_value.py:Value</title>
<path fill="none" stroke="black" d="M522.11,-376.94C545.4,-407.62 596.86,-475.38 627.55,-515.81"/>
<polygon fill="black" stroke="black" points="624.94,-518.15 633.77,-524 630.51,-513.91 624.94,-518.15"/>
</g>
<!-- edge_ef25d9bb237e&#45;&gt;sym:examples/micrograd_value.py:_as_value -->
<g id="edge12" class="edge">
<title>edge_ef25d9bb237e&#45;&gt;sym:examples/micrograd_value.py:_as_value</title>
<path fill="none" stroke="black" d="M244.19,-866.47C258.93,-860.13 279.13,-851.46 298.73,-843.04"/>
<polygon fill="black" stroke="black" points="300.17,-846.23 307.98,-839.07 297.41,-839.8 300.17,-846.23"/>
</g>
<!-- edge_1b5297ee17ea&#45;&gt;sym:examples/micrograd_value.py:_as_value -->
<g id="edge14" class="edge">
<title>edge_1b5297ee17ea&#45;&gt;sym:examples/micrograd_value.py:_as_value</title>
<path fill="none" stroke="black" d="M248.04,-815C256.81,-815 267.13,-815 277.94,-815"/>
<polygon fill="black" stroke="black" points="277.97,-818.5 287.97,-815 277.97,-811.5 277.97,-818.5"/>
</g>
<!-- edge_1a2c9fb572e8&#45;&gt;sym:examples/micrograd_value.py:_as_value -->
<g id="edge16" class="edge">
<title>edge_1a2c9fb572e8&#45;&gt;sym:examples/micrograd_value.py:_as_value</title>
<path fill="none" stroke="black" d="M244.19,-763.53C258.93,-769.87 279.13,-778.54 298.73,-786.96"/>
<polygon fill="black" stroke="black" points="297.41,-790.2 307.98,-790.93 300.17,-783.77 297.41,-790.2"/>
</g>
<!-- edge_ba192c7396c8&#45;&gt;sym:examples/micrograd_value.py:_as_value -->
<g id="edge18" class="edge">
<title>edge_ba192c7396c8&#45;&gt;sym:examples/micrograd_value.py:_as_value</title>
<path fill="none" stroke="black" d="M238.29,-706.99C260.06,-725.7 299.26,-759.38 328.11,-784.17"/>
<polygon fill="black" stroke="black" points="326.09,-787.04 335.95,-790.9 330.65,-781.73 326.09,-787.04"/>
</g>
<!-- edge_97072915711d&#45;&gt;sym:examples/micrograd_value.py:_as_value -->
<g id="edge20" class="edge">
<title>edge_97072915711d&#45;&gt;sym:examples/micrograd_value.py:_as_value</title>
<path fill="none" stroke="black" d="M235.69,-982.59C239.72,-977.96 244.09,-972.82 248,-968 281.01,-927.3 317.23,-878.88 340.26,-847.58"/>
<polygon fill="black" stroke="black" points="343.3,-849.36 346.39,-839.22 337.65,-845.21 343.3,-849.36"/>
</g>
<!-- edge_81f34b2cecbe&#45;&gt;sym:examples/micrograd_value.py:_as_value -->
<g id="edge22" class="edge">
<title>edge_81f34b2cecbe&#45;&gt;sym:examples/micrograd_value.py:_as_value</title>
<path fill="none" stroke="black" d="M238.29,-923.01C260.06,-904.3 299.26,-870.62 328.11,-845.83"/>
<polygon fill="black" stroke="black" points="330.65,-848.27 335.95,-839.1 326.09,-842.96 330.65,-848.27"/>
</g>
<!-- edge_123ff071cafa&#45;&gt;sym:examples/micrograd_value.py:Value -->
<g id="edge24" class="edge">
<title>edge_123ff071cafa&#45;&gt;sym:examples/micrograd_value.py:Value</title>
<path fill="none" stroke="black" d="M529.15,-471C548.53,-483.15 579.26,-502.41 605.13,-518.62"/>
<polygon fill="black" stroke="black" points="603.36,-521.64 613.69,-523.99 607.08,-515.71 603.36,-521.64"/>
</g>
<!-- edge_8270bc388552&#45;&gt;sym:examples/micrograd_value.py:Value -->
<g id="edge26" class="edge">
<title>edge_8270bc388552&#45;&gt;sym:examples/micrograd_value.py:Value</title>
<path fill="none" stroke="black" d="M522.6,-710.2C545.76,-681.17 595.52,-618.8 626.14,-580.42"/>
<polygon fill="black" stroke="black" points="629.24,-582.15 632.74,-572.15 623.76,-577.78 629.24,-582.15"/>
</g>
<!-- edge_4a8405ab4863&#45;&gt;sym:examples/micrograd_value.py:Value -->
<g id="edge28" class="edge">
<title>edge_4a8405ab4863&#45;&gt;sym:examples/micrograd_value.py:Value</title>
<path fill="none" stroke="black" d="M391.89,-522.53C430.75,-526.34 505.98,-533.7 565.57,-539.54"/>
<polygon fill="black" stroke="black" points="565.46,-543.04 575.75,-540.53 566.14,-536.08 565.46,-543.04"/>
</g>
<!-- edge_a517e81686c1&#45;&gt;sym:examples/micrograd_value.py:Value.backward -->
<g id="edge30" class="edge">
<title>edge_a517e81686c1&#45;&gt;sym:examples/micrograd_value.py:Value.backward</title>
<path fill="none" stroke="black" d="M248.04,-382.45C256.81,-382.26 267.13,-382.05 277.94,-381.82"/>
<polygon fill="black" stroke="black" points="278.05,-385.32 287.97,-381.61 277.9,-378.32 278.05,-385.32"/>
</g>
<!-- edge_1b5e3619f842&#45;&gt;sym:examples/micrograd_value.py:render_svg -->
<g id="edge32" class="edge">
<title>edge_1b5e3619f842&#45;&gt;sym:examples/micrograd_value.py:render_svg</title>
<path fill="none" stroke="black" d="M246.09,-267.21C255.24,-264.64 266.27,-261.53 277.86,-258.26"/>
<polygon fill="black" stroke="black" points="279.03,-261.57 287.71,-255.49 277.13,-254.83 279.03,-261.57"/>
</g>
<!-- edge_fd62a7179a19&#45;&gt;sym:examples/micrograd_value.py:Value.tanh -->
<g id="edge34" class="edge">
<title>edge_fd62a7179a19&#45;&gt;sym:examples/micrograd_value.py:Value.tanh</title>
<path fill="none" stroke="black" d="M248.04,-448.1C256.81,-448.47 267.13,-448.91 277.94,-449.36"/>
<polygon fill="black" stroke="black" points="277.83,-452.86 287.97,-449.79 278.13,-445.87 277.83,-452.86"/>
</g>
<!-- edge_38ff11301349&#45;&gt;sym:examples/micrograd_value.py:_dot_quote -->
<g id="edge36" class="edge">
<title>edge_38ff11301349&#45;&gt;sym:examples/micrograd_value.py:_dot_quote</title>
<path fill="none" stroke="black" d="M824.04,-329C832.81,-329 843.13,-329 853.94,-329"/>
<polygon fill="black" stroke="black" points="853.97,-332.5 863.97,-329 853.97,-325.5 853.97,-332.5"/>
</g>
<!-- edge_b7869cef67c5&#45;&gt;sym:examples/micrograd_value.py:_value_html_label -->
<g id="edge38" class="edge">
<title>edge_b7869cef67c5&#45;&gt;sym:examples/micrograd_value.py:_value_html_label</title>
<path fill="none" stroke="black" d="M822.41,-261.81C831.52,-259.5 842.45,-256.73 853.94,-253.82"/>
<polygon fill="black" stroke="black" points="854.86,-257.19 863.7,-251.34 853.14,-250.41 854.86,-257.19"/>
</g>
<!-- edge_539a386f51e9&#45;&gt;sym:examples/micrograd_value.py:trace -->
<g id="edge40" class="edge">
<title>edge_539a386f51e9&#45;&gt;sym:examples/micrograd_value.py:trace</title>
<path fill="none" stroke="black" d="M820.19,-136.47C834.93,-130.13 855.13,-121.46 874.73,-113.04"/>
<polygon fill="black" stroke="black" points="876.17,-116.23 883.98,-109.07 873.41,-109.8 876.17,-116.23"/>
</g>
<!-- edge_2cc7dca2ce46&#45;&gt;sym:examples/micrograd_value.py:_value_html_label -->
<g id="edge42" class="edge">
<title>edge_2cc7dca2ce46&#45;&gt;sym:examples/micrograd_value.py:_value_html_label</title>
<path fill="none" stroke="black" d="M823.39,-211.47C832.33,-213.04 842.96,-214.91 854.09,-216.87"/>
<polygon fill="black" stroke="black" points="853.52,-220.33 863.98,-218.62 854.74,-213.43 853.52,-220.33"/>
</g>
<!-- edge_f5e85f7cd5b1&#45;&gt;sym:examples/micrograd_value.py:trace -->
<g id="edge44" class="edge">
<title>edge_f5e85f7cd5b1&#45;&gt;sym:examples/micrograd_value.py:trace</title>
<path fill="none" stroke="black" d="M824.04,-85C832.81,-85 843.13,-85 853.94,-85"/>
<polygon fill="black" stroke="black" points="853.97,-88.5 863.97,-85 853.97,-81.5 853.97,-88.5"/>
</g>
<!-- edge_54ddb5d94780&#45;&gt;sym:examples/micrograd_value.py:dot_source -->
<g id="edge46" class="edge">
<title>edge_54ddb5d94780&#45;&gt;sym:examples/micrograd_value.py:dot_source</title>
<path fill="none" stroke="black" d="M536.04,-265.55C544.81,-265.74 555.13,-265.95 565.94,-266.18"/>
<polygon fill="black" stroke="black" points="565.9,-269.68 575.97,-266.39 566.05,-262.68 565.9,-269.68"/>
</g>
<!-- edge_7a1b9303f164&#45;&gt;sym:examples/micrograd_value.py:draw_dot -->
<g id="edge48" class="edge">
<title>edge_7a1b9303f164&#45;&gt;sym:examples/micrograd_value.py:draw_dot</title>
<path fill="none" stroke="black" d="M536.04,-199.9C544.81,-199.53 555.13,-199.09 565.94,-198.64"/>
<polygon fill="black" stroke="black" points="566.13,-202.13 575.97,-198.21 565.83,-195.14 566.13,-202.13"/>
</g>
<!-- edge_d914404aa0b5&#45;&gt;sym:examples/micrograd_value.py:trace -->
<g id="edge50" class="edge">
<title>edge_d914404aa0b5&#45;&gt;sym:examples/micrograd_value.py:trace</title>
<path fill="none" stroke="black" d="M820.19,-33.53C834.93,-39.87 855.13,-48.54 874.73,-56.96"/>
<polygon fill="black" stroke="black" points="873.41,-60.2 883.98,-60.93 876.17,-53.77 873.41,-60.2"/>
</g>
</g>
</svg>
